<svg width="18" height="18" viewBox="0 0 18 18" fill="none" xmlns="http://www.w3.org/2000/svg">
<g clip-path="url(#clip0_3_2)">
<path d="M9 16.5C13.1421 16.5 16.5 13.1421 16.5 9C16.5 4.85786 13.1421 1.5 9 1.5C4.85786 1.5 1.5 4.85786 1.5 9C1.5 13.1421 4.85786 16.5 9 16.5Z" stroke="#FF9500" stroke-width="1.5"/>
<path d="M5 12L9 5L13 12H5ZM6.47698 11.1346H11.523L9 6.73085L6.47698 11.1346Z" fill="#FF9500"/>
<path d="M9.13619 11.651C9.0552 11.5705 8.99454 11.4799 8.95421 11.379C8.9139 11.278 8.89375 11.1756 8.89375 11.0716C8.89375 10.9676 8.9136 10.8657 8.95329 10.766C8.99301 10.6663 9.05398 10.5762 9.13619 10.4957L9.4476 10.1863C9.48442 10.1497 9.51164 10.1088 9.52928 10.0636C9.54691 10.0183 9.55572 9.9713 9.55572 9.92252C9.55572 9.87374 9.54691 9.82672 9.52928 9.78145C9.51164 9.73622 9.48442 9.6953 9.4476 9.6587L9.09629 9.31204L9.4104 9L9.75939 9.349C9.8388 9.4279 9.89876 9.51682 9.93926 9.61576C9.97975 9.7147 10 9.81617 10 9.92017C10 10.0242 9.97975 10.1258 9.93926 10.2249C9.89876 10.324 9.8388 10.413 9.75939 10.4919L9.44798 10.8013C9.40994 10.8391 9.38172 10.881 9.36331 10.927C9.34488 10.973 9.33566 11.0204 9.33566 11.0692C9.33566 11.118 9.34488 11.1661 9.36331 11.2135C9.38172 11.2609 9.40994 11.3035 9.44798 11.3413L9.79929 11.688L9.48514 12L9.13619 11.651ZM8.18843 11.651C8.10743 11.5705 8.04707 11.4801 8.00735 11.3798C7.96763 11.2795 7.94777 11.1774 7.94777 11.0734C7.94777 10.9693 7.96763 10.8672 8.00735 10.7669C8.04707 10.6666 8.10743 10.5762 8.18843 10.4957L8.49984 10.1863C8.53665 10.1497 8.56388 10.1088 8.58151 10.0636C8.59914 10.0183 8.60796 9.9713 8.60796 9.92252C8.60796 9.87374 8.59914 9.82672 8.58151 9.78145C8.56388 9.73622 8.53665 9.6953 8.49984 9.6587L8.15085 9.31204L8.45848 9L8.81158 9.349C8.89102 9.4279 8.95099 9.51682 8.99149 9.61576C9.03199 9.7147 9.05224 9.81617 9.05224 9.92017C9.05224 10.0242 9.03199 10.1258 8.99149 10.2249C8.95099 10.324 8.89102 10.413 8.81158 10.4919L8.50017 10.8013C8.46214 10.8391 8.43392 10.881 8.41551 10.927C8.3971 10.973 8.3879 11.0204 8.3879 11.0692C8.3879 11.118 8.3971 11.1661 8.41551 11.2135C8.43392 11.2609 8.46214 11.3035 8.50017 11.3413L8.85148 11.688L8.53737 12L8.18843 11.651ZM7.24062 11.6469C7.1612 11.568 7.10125 11.4787 7.06075 11.379C7.02025 11.2793 7 11.1774 7 11.0734C7 10.9693 7.02025 10.8672 7.06075 10.7669C7.10125 10.6666 7.1612 10.5762 7.24062 10.4957L7.55203 10.1822C7.58887 10.1456 7.61611 10.1047 7.63374 10.0595C7.65138 10.0142 7.66019 9.96718 7.66019 9.9184C7.66019 9.86961 7.65138 9.82259 7.63374 9.77733C7.61611 9.73209 7.58887 9.69117 7.55203 9.65457L7.20072 9.30792L7.51072 9.00231L7.86381 9.349C7.94481 9.4279 8.00517 9.51682 8.04489 9.61576C8.08461 9.7147 8.10447 9.81617 8.10447 9.92017C8.10447 10.0242 8.08422 10.1258 8.04373 10.2249C8.00323 10.324 7.94326 10.413 7.86381 10.4919L7.5524 10.8013C7.51437 10.8391 7.48615 10.8817 7.46774 10.9291C7.44933 10.9765 7.44013 11.0246 7.44013 11.0734C7.44013 11.1221 7.44933 11.1695 7.46774 11.2156C7.48615 11.2616 7.51437 11.3035 7.5524 11.3413L7.90372 11.688L7.58961 11.9936L7.24062 11.6469Z" fill="#FF9500"/>
<path d="M9.9542 11.379C9.99453 11.4799 10.0552 11.5705 10.1362 11.651L10.4851 12L10.7993 11.688L10.448 11.3413C10.4099 11.3035 10.3817 11.2609 10.3633 11.2135C10.3449 11.1661 10.3357 11.118 10.3357 11.0692C10.3357 11.0204 10.3449 10.973 10.3633 10.927C10.3817 10.881 10.4099 10.8391 10.448 10.8013L10.7594 10.4919C10.8388 10.413 10.8988 10.324 10.9393 10.2249C10.9798 10.1258 11 10.0242 11 9.92017C11 9.81617 10.9798 9.7147 10.9393 9.61576C10.8988 9.51682 10.8388 9.4279 10.7594 9.349L10.4104 9L10.0963 9.31204L10.4476 9.6587C10.4844 9.6953 10.5116 9.73622 10.5293 9.78145C10.5469 9.82672 10.5557 9.87374 10.5557 9.92252C10.5557 9.9713 10.5469 10.0183 10.5293 10.0636C10.5116 10.1088 10.4844 10.1497 10.4476 10.1863L10.1362 10.4957C10.054 10.5762 9.99301 10.6663 9.95329 10.766C9.91359 10.8657 9.89375 10.9676 9.89375 11.0716C9.89375 11.1756 9.9139 11.278 9.9542 11.379Z" fill="#FF9500"/>
</g>
<defs>
<clipPath id="clip0_3_2">
<rect width="18" height="18" fill="white"/>
</clipPath>
</defs>
</svg>