<svg width="18" height="18" viewBox="0 0 18 18" fill="none" xmlns="http://www.w3.org/2000/svg">
<g clip-path="url(#clip0_1_13)">
<path d="M9 0.75C13.5563 0.75 17.25 4.44365 17.25 9C17.25 13.5563 13.5563 17.25 9 17.25C4.44365 17.25 0.75 13.5563 0.75 9C0.75 4.44365 4.44365 0.75 9 0.75ZM7.4541 10.0547C7.17677 10.0547 6.90544 10.1079 6.6416 10.2139C6.37798 10.3198 6.14091 10.4805 5.93066 10.6963L5.00586 11.6377L5.82129 12.4648L6.74512 11.5283C6.84272 11.4301 6.95261 11.3566 7.07324 11.3096C7.1938 11.2627 7.3193 11.2393 7.44922 11.2393C7.57918 11.2393 7.7046 11.2626 7.8252 11.3096C7.94582 11.3566 8.05474 11.4301 8.15234 11.5283L8.98828 12.3584C9.20285 12.5702 9.4444 12.7299 9.71191 12.8379C9.9793 12.9458 10.2519 13 10.5293 13C10.8066 13 11.078 12.9458 11.3438 12.8379C11.6096 12.7299 11.8482 12.5702 12.0586 12.3584L12.9824 11.4277L12.168 10.5898L11.2432 11.5273C11.1425 11.6286 11.0308 11.7039 10.9082 11.7529C10.7856 11.802 10.6592 11.8261 10.5293 11.8262C10.3993 11.8262 10.2708 11.8019 10.1445 11.7529C10.0183 11.7039 9.90438 11.6286 9.80371 11.5273L8.97852 10.6963C8.76822 10.4845 8.53083 10.3248 8.2666 10.2168C8.00242 10.1088 7.7314 10.0547 7.4541 10.0547ZM7.4541 7.52734C7.17677 7.52734 6.90544 7.58146 6.6416 7.68945C6.37795 7.79743 6.14092 7.95724 5.93066 8.16895L5 9.11035L5.83203 9.93066L6.75684 9C6.85434 8.90202 6.96351 8.82919 7.08398 8.78223C7.20458 8.73528 7.32999 8.71193 7.45996 8.71191C7.5899 8.71191 7.71536 8.73531 7.83594 8.78223C7.95657 8.82925 8.06646 8.90182 8.16406 9L8.98828 9.83105C9.20285 10.047 9.4444 10.2076 9.71191 10.3135C9.97931 10.4194 10.2519 10.4727 10.5293 10.4727C10.8066 10.4726 11.0794 10.4194 11.3467 10.3135C11.614 10.2076 11.8549 10.0469 12.0693 9.83105L13 8.90039L12.168 8.0625L11.2432 9C11.1425 9.10123 11.0286 9.17656 10.9023 9.22559C10.7761 9.27457 10.6475 9.29883 10.5176 9.29883C10.3876 9.29878 10.2613 9.2746 10.1387 9.22559C10.0161 9.17656 9.90437 9.10123 9.80371 9L8.97852 8.16895C8.76821 7.95719 8.53083 7.79743 8.2666 7.68945C8.00242 7.5815 7.7314 7.52738 7.4541 7.52734ZM7.4541 5C7.17677 5 6.90544 5.05412 6.6416 5.16211C6.37792 5.2701 6.14094 5.42994 5.93066 5.6416L5 6.57227L5.83203 7.41016L6.75684 6.47266C6.85435 6.37467 6.9635 6.30185 7.08398 6.25488C7.20459 6.20793 7.32999 6.18458 7.45996 6.18457C7.58991 6.18457 7.71536 6.20797 7.83594 6.25488C7.95657 6.3019 8.06646 6.37448 8.16406 6.47266L8.98828 7.30371C9.20276 7.52286 9.44321 7.68509 9.70898 7.79102C9.97488 7.89687 10.247 7.9502 10.5244 7.9502C10.8016 7.95017 11.0748 7.89645 11.3438 7.78906C11.6128 7.68153 11.8548 7.51964 12.0693 7.30371L13 6.37305L12.168 5.53516L11.2432 6.47168C11.1424 6.5731 11.0288 6.64915 10.9023 6.69824C10.7761 6.74729 10.6475 6.77148 10.5176 6.77148C10.3877 6.77144 10.2613 6.74732 10.1387 6.69824C10.0159 6.64915 9.90447 6.5731 9.80371 6.47168L8.97852 5.6416C8.7682 5.4299 8.53085 5.2701 8.2666 5.16211C8.00242 5.05416 7.7314 5.00004 7.4541 5Z" fill="black"/>
</g>
<defs>
<clipPath id="clip0_1_13">
<rect width="18" height="18" fill="white"/>
</clipPath>
</defs>
</svg>