<svg width="18" height="18" viewBox="0 0 18 18" fill="none" xmlns="http://www.w3.org/2000/svg">
<path d="M15.1386 5.60699C14.7095 6.03896 14.2259 6.36249 13.6878 6.57759C13.1496 6.79254 12.6031 6.90002 12.0484 6.90002C11.4936 6.90002 10.9503 6.79417 10.4185 6.58246C9.88671 6.37061 9.40625 6.04545 8.97712 5.60699L7.32718 3.94613C7.13198 3.74978 6.91374 3.60459 6.67249 3.51055C6.43108 3.4165 6.18029 3.36948 5.92011 3.36948C5.65994 3.36948 5.40915 3.4165 5.16774 3.51055C4.92649 3.60459 4.70825 3.74978 4.51305 3.94613L2.66424 5.8198L1 4.14455L2.86135 2.28329C3.28212 1.85973 3.75635 1.53996 4.28404 1.32398C4.81172 1.10799 5.3529 1 5.90758 1C6.46239 1 7.00409 1.10799 7.53265 1.32398C8.06137 1.53996 8.53611 1.85973 8.95688 2.28329L10.6068 3.94414C10.8083 4.14699 11.0318 4.2975 11.2774 4.39567C11.5229 4.49399 11.7757 4.54315 12.0359 4.54315C12.2961 4.54315 12.5526 4.49399 12.8054 4.39567C13.0583 4.2975 13.2854 4.14699 13.487 3.94414L15.3358 2.07048L17 3.74594L15.1386 5.60699ZM15.1386 10.6617C14.7095 11.0937 14.2274 11.4156 13.6924 11.6275C13.1575 11.8393 12.6127 11.9452 12.0579 11.9452C11.5031 11.9452 10.9582 11.8393 10.4233 11.6275C9.88833 11.4156 9.40625 11.0937 8.97712 10.6617L7.32718 9.00089C7.13198 8.80454 6.91374 8.65934 6.67249 8.5653C6.43108 8.47126 6.18029 8.42424 5.92011 8.42424C5.65994 8.42424 5.40915 8.47126 5.16774 8.5653C4.92649 8.65934 4.70825 8.80454 4.51305 9.00089L2.66424 10.8621L1 9.22145L2.86135 7.33826C3.28212 6.91456 3.75635 6.59471 4.28404 6.37873C4.81172 6.16275 5.3529 6.05475 5.90758 6.05475C6.46239 6.05475 7.00409 6.16275 7.53265 6.37873C8.06137 6.59471 8.53611 6.91456 8.95688 7.33826L10.6068 8.99911C10.8083 9.20196 11.0318 9.35247 11.2774 9.45064C11.5229 9.54882 11.7757 9.59791 12.0359 9.59791C12.2961 9.59791 12.5526 9.54882 12.8054 9.45064C13.0583 9.35247 13.2854 9.20196 13.487 8.99911L15.3358 7.12545L17 8.8007L15.1386 10.6617ZM15.1166 15.7167C14.6959 16.1403 14.2196 16.46 13.6878 16.676C13.156 16.892 12.6127 17 12.0579 17C11.5031 17 10.9582 16.892 10.4233 16.676C9.88833 16.46 9.40625 16.1403 8.97712 15.7167L7.30518 14.0559C7.10998 13.8594 6.89175 13.7141 6.65049 13.6201C6.40908 13.526 6.15829 13.479 5.89812 13.479C5.63794 13.479 5.38715 13.526 5.14574 13.6201C4.90449 13.7141 4.68625 13.8594 4.49105 14.0559L2.64224 15.9295L1.01232 14.2762L2.86135 12.393C3.28212 11.961 3.75635 11.6391 4.28404 11.4273C4.81172 11.2154 5.3529 11.1095 5.90758 11.1095C6.46239 11.1095 7.00409 11.2175 7.53265 11.4335C8.06137 11.6495 8.53611 11.9693 8.95688 12.393L10.6068 14.0539C10.8083 14.2567 11.0355 14.4072 11.2884 14.5054C11.5412 14.6036 11.7977 14.6527 12.0579 14.6527C12.3181 14.6527 12.5709 14.6036 12.8164 14.5054C13.0619 14.4072 13.2854 14.2567 13.487 14.0539L15.3358 12.1802L16.9657 13.8555L15.1166 15.7167Z" fill="currentColor"/>
</svg>