<svg width="18" height="18" viewBox="0 0 18 18" fill="none" xmlns="http://www.w3.org/2000/svg">
<g clip-path="url(#clip0_1_2)">
<path d="M9 16.5C13.1421 16.5 16.5 13.1421 16.5 9C16.5 4.85786 13.1421 1.5 9 1.5C4.85786 1.5 1.5 4.85786 1.5 9C1.5 13.1421 4.85786 16.5 9 16.5Z" stroke="black" stroke-width="1.5"/>
<path d="M12.0693 7.30349C11.8548 7.51948 11.613 7.68125 11.3439 7.78879C11.0748 7.89627 10.8015 7.95001 10.5242 7.95001C10.2468 7.95001 9.97515 7.89708 9.70925 7.79123C9.44336 7.68531 9.20313 7.52273 8.98856 7.30349L8.16359 6.47307C8.06599 6.37489 7.95687 6.30229 7.83624 6.25527C7.71554 6.20825 7.59015 6.18474 7.46006 6.18474C7.32997 6.18474 7.20457 6.20825 7.08387 6.25527C6.96324 6.30229 6.85413 6.37489 6.75652 6.47307L5.83212 7.4099L5 6.57227L5.93068 5.64164C6.14106 5.42987 6.37817 5.26998 6.64202 5.16199C6.90586 5.054 7.17645 5 7.45379 5C7.7312 5 8.00204 5.054 8.26633 5.16199C8.53068 5.26998 8.76806 5.42987 8.97844 5.64164L9.80341 6.47207C9.90417 6.57349 10.0159 6.64875 10.1387 6.69784C10.2614 6.747 10.3879 6.77158 10.5179 6.77158C10.648 6.77158 10.7763 6.747 10.9027 6.69784C11.0291 6.64875 11.1427 6.57349 11.2435 6.47207L12.1679 5.53524L13 6.37297L12.0693 7.30349ZM12.0693 9.83087C11.8548 10.0469 11.6137 10.2078 11.3462 10.3137C11.0788 10.4197 10.8064 10.4726 10.5289 10.4726C10.2515 10.4726 9.97911 10.4197 9.71167 10.3137C9.44416 10.2078 9.20313 10.0469 8.98856 9.83087L8.16359 9.00044C8.06599 8.90227 7.95687 8.82967 7.83624 8.78265C7.71554 8.73563 7.59015 8.71212 7.46006 8.71212C7.32997 8.71212 7.20457 8.73563 7.08387 8.78265C6.96324 8.82967 6.85413 8.90227 6.75652 9.00044L5.83212 9.93107L5 9.11072L5.93068 8.16913C6.14106 7.95728 6.37817 7.79736 6.64202 7.68936C6.90586 7.58137 7.17645 7.52738 7.45379 7.52738C7.7312 7.52738 8.00204 7.58137 8.26633 7.68936C8.53068 7.79736 8.76806 7.95728 8.97844 8.16913L9.80341 8.99956C9.90417 9.10098 10.0159 9.17623 10.1387 9.22532C10.2614 9.27441 10.3879 9.29895 10.5179 9.29895C10.648 9.29895 10.7763 9.27441 10.9027 9.22532C11.0291 9.17623 11.1427 9.10098 11.2435 8.99956L12.1679 8.06272L13 8.90035L12.0693 9.83087ZM12.0583 12.3584C11.8479 12.5701 11.6098 12.73 11.3439 12.838C11.078 12.946 10.8064 13 10.5289 13C10.2515 13 9.97911 12.946 9.71167 12.838C9.44416 12.73 9.20313 12.5701 8.98856 12.3584L8.15259 11.5279C8.05499 11.4297 7.94587 11.357 7.82524 11.31C7.70454 11.263 7.57915 11.2395 7.44906 11.2395C7.31897 11.2395 7.19357 11.263 7.07287 11.31C6.95224 11.357 6.84313 11.4297 6.74552 11.5279L5.82112 12.4648L5.00616 11.6381L5.93068 10.6965C6.14106 10.4805 6.37817 10.3196 6.64202 10.2136C6.90586 10.1077 7.17645 10.0548 7.45379 10.0548C7.7312 10.0548 8.00204 10.1087 8.26633 10.2167C8.53068 10.3247 8.76806 10.4847 8.97844 10.6965L9.80341 11.5269C9.90417 11.6284 10.0178 11.7036 10.1442 11.7527C10.2706 11.8018 10.3989 11.8263 10.5289 11.8263C10.659 11.8263 10.7855 11.8018 10.9082 11.7527C11.031 11.7036 11.1427 11.6284 11.2435 11.5269L12.1679 10.5901L12.9828 11.4277L12.0583 12.3584Z" fill="black"/>
</g>
<defs>
<clipPath id="clip0_1_2">
<rect width="18" height="18" fill="white"/>
</clipPath>
</defs>
</svg>